<?xml version="1.0" encoding="UTF-8"?>
<svg version="1.1" xmlns="http://www.w3.org/2000/svg" width="500" height="500">
<path d="M0 0 C3.5 0.5625 3.5 0.5625 5.5 2.1875 C6.81794101 5.3176099 6.31054223 7.32033109 5.5 10.5625 C4.51 10.8925 3.52 11.2225 2.5 11.5625 C2.83 19.8125 3.16 28.0625 3.5 36.5625 C5.48 37.5525 7.46 38.5425 9.5 39.5625 C13.5341607 43.48460068 14.52706409 47.16712811 15.5 52.5625 C15.17 53.2225 14.84 53.8825 14.5 54.5625 C15.208647 54.68481491 15.91729401 54.80712982 16.64741516 54.93315125 C19.62624594 55.59035289 22.29776849 56.52974916 25.14135742 57.63208008 C26.80414986 58.27328545 26.80414986 58.27328545 28.50053406 58.92744446 C30.28497673 59.62271492 30.28497673 59.62271492 32.10546875 60.33203125 C33.35218974 60.81460251 34.59904367 61.29683044 35.84602356 61.7787323 C39.12658428 63.04766178 42.40520327 64.32153676 45.68347168 65.59637451 C48.33544658 66.6267468 50.98873536 67.65370835 53.64211559 68.68045521 C76.44510748 77.50447023 76.44510748 77.50447023 84.58369446 80.8691864 C86.47380437 81.67590499 86.47380437 81.67590499 88.5 81.5625 C89.015625 80.82 89.53125 80.0775 90.0625 79.3125 C93.3638384 75.58791308 96.68961777 73.80797881 101.5 72.5625 C105.65551536 72.47358027 109.74382679 72.68441339 113.5 74.5625 C113.71269531 73.78132813 113.92539062 73.00015625 114.14453125 72.1953125 C116.32664371 66.34699957 119.62324315 61.10424046 122.77539062 55.73046875 C123.51112305 54.43689453 123.51112305 54.43689453 124.26171875 53.1171875 C124.71506592 52.33843262 125.16841309 51.55967773 125.63549805 50.75732422 C126.65316191 48.17364782 126.41385774 47.13097861 125.5 44.5625 C125.01524814 40.49376308 124.80338755 37.56871799 127.1875 34.125 C129.83817724 32.33400186 131.29382862 31.63883741 134.5 31.5625 C137.6875 32.5625 137.6875 32.5625 140.5 34.5625 C142.0625 37.9375 142.0625 37.9375 142.5 41.5625 C141.17765243 44.53778203 139.79087851 46.27162149 137.5 48.5625 C133.875 48.6875 133.875 48.6875 130.5 48.5625 C130.30277344 49.32949219 130.10554688 50.09648438 129.90234375 50.88671875 C128.66469554 54.13080501 127.29914436 56.69632857 125.50390625 59.64453125 C124.94638672 60.57716797 124.38886719 61.50980469 123.81445312 62.47070312 C122.64427313 64.41056673 121.44866058 66.33530896 120.22851562 68.24414062 C118.59111412 71.03984496 117.29818541 73.41918072 116.5 76.5625 C117.32956635 79.32745165 118.50325921 81.23822286 120.15600586 83.5949707 C122.84481039 87.53122424 122.15267174 92.03590567 121.5 96.5625 C120.09342703 100.31336125 118.54422177 102.95316705 115.5 105.5625 C116.90289409 110.22812491 118.86044003 114.38569775 121.1953125 118.640625 C121.54761932 119.29327332 121.89992615 119.94592163 122.26290894 120.61834717 C123.37909864 122.68554401 124.50135347 124.74934807 125.625 126.8125 C126.75554819 128.89005647 127.88461867 130.96833601 129.0085144 133.04949951 C129.70567103 134.34042047 130.40666544 135.62927768 131.11184692 136.91583252 C133.5 141.33721439 133.5 141.33721439 133.5 143.5625 C134.22445313 143.52769531 134.94890625 143.49289063 135.6953125 143.45703125 C145.8666367 143.17223417 145.8666367 143.17223417 150.5 146.5625 C153.96987891 150.21500412 154.80013186 153.1590683 155 158.0625 C154.81360303 162.96207754 153.85212688 165.83791458 150.5 169.5625 C147.84200077 171.97886294 147.14705667 172.5625 143.5 172.5625 C143.65146484 173.73756104 143.80292969 174.91262207 143.95898438 176.12329102 C144.52250167 180.50424113 145.08021793 184.88591389 145.63623047 189.26782227 C145.87717341 191.16027543 146.119666 193.05253199 146.36376953 194.94458008 C146.7153938 197.67217975 147.06134523 200.40044976 147.40625 203.12890625 C147.5156189 203.96772842 147.62498779 204.8065506 147.7376709 205.67079163 C148.32231746 210.3448762 148.61063974 214.85201314 148.5 219.5625 C149.2425 219.7275 149.985 219.8925 150.75 220.0625 C154.7832382 222.26244811 156.05923157 225.29441717 157.5 229.5625 C158.13305877 234.8078441 157.36049421 238.12380208 154.5 242.5625 C151.84198119 245.14868046 150.29683156 246.43775984 146.60546875 247.015625 C141.61101688 249.50342744 140.84939302 253.98325674 139.125 259.0625 C138.59326172 260.52623047 138.59326172 260.52623047 138.05078125 262.01953125 C136.21081227 266.67983566 136.21081227 266.67983566 135.5 271.5625 C136.73426567 272.64724655 138.01355302 273.68110865 139.3125 274.6875 C144.18818933 278.8641967 145.84775774 282.47116216 146.84375 288.71875 C147.29604466 295.1413342 145.15569681 300.33877364 141.5 305.5625 C136.2703706 310.56326159 131.58979277 311.69626967 124.5 311.5625 C124.50785522 312.49594238 124.50785522 312.49594238 124.51586914 313.44824219 C124.61789424 327.52512302 124.37040948 341.5116041 123.5 355.5625 C124.139375 355.871875 124.77875 356.18125 125.4375 356.5 C127.5 357.5625 127.5 357.5625 128.5 358.5625 C128.86395977 362.42047355 129.06007535 364.72238698 126.875 368 C123.80182885 370.02182313 122.11752119 370.09005517 118.5 369.5625 C116.125 368.5625 116.125 368.5625 114.5 366.5625 C113.99010783 363.81251977 114.01262387 361.31474166 114.5 358.5625 C115.875 356.5625 115.875 356.5625 117.5 355.5625 C118.16 355.5625 118.82 355.5625 119.5 355.5625 C119.52505615 354.62043701 119.5501123 353.67837402 119.57592773 352.70776367 C119.67194017 349.16096424 119.77111048 345.61428063 119.87231445 342.06762695 C119.91521661 340.54227058 119.95691568 339.01687981 119.99731445 337.49145508 C120.2279919 328.81399598 120.54648614 320.19794272 121.5 311.5625 C120.49332275 311.24611572 120.49332275 311.24611572 119.46630859 310.92333984 C112.75 308.8125 112.75 308.8125 110.5 306.5625 C107.27932768 306.91620587 105.32517391 308.23245823 102.83984375 310.23046875 C102.13786865 310.78726318 101.43589355 311.34405762 100.71264648 311.91772461 C99.96184814 312.52237549 99.2110498 313.12702637 98.4375 313.75 C91.11445101 319.55327017 83.68537117 325.17522376 76.13452148 330.6784668 C74.66341139 331.75279711 73.1965679 332.83299792 71.734375 333.91943359 C70.15310887 335.08223091 68.55189016 336.2181194 66.9375 337.33447266 C66.11121094 337.92663574 65.28492188 338.51879883 64.43359375 339.12890625 C63.29942017 339.91890015 63.29942017 339.91890015 62.14233398 340.72485352 C60.22126637 342.50025132 60.22126637 342.50025132 60.28466797 345.34887695 C60.5182041 347.21096743 60.80524006 349.06689116 61.13671875 350.9140625 C61.71305614 355.11574799 60.72535306 356.97322087 58.5 360.5625 C55.81106572 363.37598982 53.23820614 365.31643129 49.5 366.5625 C47.19 366.5625 44.88 366.5625 42.5 366.5625 C42.5 374.1525 42.5 381.7425 42.5 389.5625 C43.82 390.2225 45.14 390.8825 46.5 391.5625 C48.15479843 394.3992973 48.5 396.27615531 48.5 399.5625 C47.10247905 403.75506285 45.20982973 405.22668128 41.5 407.5625 C37.24169522 408.23486391 35.31503264 408.05860683 31.625 405.8125 C29.5 403.5625 29.5 403.5625 28.5 399.5625 C16.29 399.8925 4.08 400.2225 -8.5 400.5625 C-9.49 402.5425 -10.48 404.5225 -11.5 406.5625 C-14.72323237 409.90084781 -17.93373643 410.4077114 -22.5 410.5625 C-27.06833627 409.11586018 -30.11106632 407.80949322 -32.5 403.5625 C-32.83 402.5725 -33.16 401.5825 -33.5 400.5625 C-42.41 399.9025 -51.32 399.2425 -60.5 398.5625 C-61.16 400.2125 -61.82 401.8625 -62.5 403.5625 C-66.18497796 406.01915197 -69.21971786 406.26336491 -73.5 405.5625 C-76.3100346 403.76886089 -78.00940468 402.54369065 -79.5 399.5625 C-79.97400821 393.16338919 -79.97400821 393.16338919 -77.953125 390.6015625 C-76.3114836 388.70615219 -76.3114836 388.70615219 -76.46875 386.546875 C-76.6440625 385.80953125 -76.819375 385.0721875 -77 384.3125 C-77.30550781 383.02085937 -77.30550781 383.02085937 -77.6171875 381.703125 C-78.91752474 377.0771465 -80.33463918 372.49003681 -81.82226562 367.92089844 C-83.5 362.75497901 -83.5 362.75497901 -83.5 360.5625 C-84.3353125 360.55863281 -84.3353125 360.55863281 -85.1875 360.5546875 C-91.67534774 360.22591143 -95.93974665 358.23211194 -100.5 353.5625 C-102.66916763 350.27715874 -102.76962408 347.51547447 -102.75 343.625 C-102.75773437 342.09552734 -102.75773437 342.09552734 -102.765625 340.53515625 C-102.49523535 337.50917796 -101.77241136 335.30424353 -100.5 332.5625 C-101.76767077 331.26772938 -103.03926224 329.97679661 -104.3125 328.6875 C-105.02019531 327.96820313 -105.72789062 327.24890625 -106.45703125 326.5078125 C-108.54399194 324.40891063 -108.54399194 324.40891063 -111.5 322.5625 C-111.5 321.9025 -111.5 321.2425 -111.5 320.5625 C-112.09332123 320.29809616 -112.68664246 320.03369232 -113.29794312 319.76127625 C-115.5827227 318.51746664 -116.96495855 317.27565576 -118.73291016 315.38208008 C-119.34099518 314.73833939 -119.9490802 314.09459869 -120.57559204 313.43135071 C-121.54750992 312.39218758 -121.54750992 312.39218758 -122.5390625 311.33203125 C-123.93740016 309.87430493 -125.33718594 308.41796661 -126.73828125 306.96289062 C-128.93763405 304.67093608 -131.12733797 302.37249225 -133.29345703 300.04907227 C-135.39170718 297.80510367 -137.52366332 295.59823421 -139.6640625 293.39453125 C-140.29986237 292.69568314 -140.93566223 291.99683502 -141.59072876 291.27680969 C-144.3232387 288.51254578 -146.17198615 286.72473828 -150.1134491 286.2432251 C-155.14357863 286.49613691 -155.14357863 286.49613691 -159.14611816 289.24928284 C-160.51462685 291.32337016 -161.53926297 293.42332576 -162.5625 295.6875 C-163.37965607 297.32969942 -164.20003083 298.97030074 -165.0234375 300.609375 C-165.42788086 301.43759766 -165.83232422 302.26582031 -166.24902344 303.11914062 C-168.50127558 307.518153 -171.19669324 311.65418482 -173.89672852 315.78955078 C-176.00079639 318.90528255 -176.00079639 318.90528255 -176.15600586 322.49853516 C-175.93952393 323.17964355 -175.72304199 323.86075195 -175.5 324.5625 C-175.35997559 325.23410156 -175.21995117 325.90570313 -175.07568359 326.59765625 C-174.19815456 329.81914215 -173.5423091 331.96569821 -170.55566406 333.67578125 C-168.0918745 334.48154891 -165.66673603 335.05491608 -163.125 335.5625 C-161.84882813 335.86607422 -161.84882813 335.86607422 -160.546875 336.17578125 C-154.58077896 337.57772796 -154.58077896 337.57772796 -148.5 337.5625 C-147.84 336.9025 -147.18 336.2425 -146.5 335.5625 C-140.37866109 335.00601464 -140.37866109 335.00601464 -137.625 336.75 C-136.14594594 339.13292043 -135.63408693 340.74667448 -135.5 343.5625 C-136.6415919 345.8456838 -137.69012683 347.75262683 -139.5 349.5625 C-142.8125 349.9375 -142.8125 349.9375 -146.5 349.5625 C-148.9375 347.1875 -148.9375 347.1875 -150.5 344.5625 C-150.5 343.9025 -150.5 343.2425 -150.5 342.5625 C-151.634375 342.29695313 -152.76875 342.03140625 -153.9375 341.7578125 C-155.45834048 341.40107214 -156.97917341 341.04429958 -158.5 340.6875 C-159.61568359 340.42646484 -159.61568359 340.42646484 -160.75390625 340.16015625 C-165.68052359 339.00347218 -170.59313816 337.80036742 -175.5 336.5625 C-175.768125 337.18125 -176.03625 337.8 -176.3125 338.4375 C-177.5 340.5625 -177.5 340.5625 -180.5 342.5625 C-183.89107371 343.10852034 -187.10874176 343.10877924 -190.5 342.5625 C-193.32424288 340.37227082 -194.91508603 338.73232793 -196.5 335.5625 C-196.85032356 330.22006567 -196.9561069 326.91463461 -193.5 322.5625 C-190.18629 320.35336 -189.1553979 320.33768447 -185.3125 320.4375 C-184.41144531 320.45554687 -183.51039063 320.47359375 -182.58203125 320.4921875 C-181.55142578 320.52699219 -181.55142578 320.52699219 -180.5 320.5625 C-180.24621582 319.87099854 -179.99243164 319.17949707 -179.73095703 318.46704102 C-178.33036059 315.16222231 -176.62510097 312.18365756 -174.8046875 309.08984375 C-174.08172646 307.84848475 -173.3590795 306.60694279 -172.63671875 305.36523438 C-171.503454 303.42548504 -170.36757126 301.48740776 -169.22607422 299.55249023 C-168.11955567 297.67350096 -167.02393768 295.78849668 -165.9296875 293.90234375 C-165.27210449 292.78206787 -164.61452148 291.66179199 -163.93701172 290.50756836 C-162.20765299 287.50951162 -162.20765299 287.50951162 -162.5 283.5625 C-163.015625 282.77875 -163.53125 281.995 -164.0625 281.1875 C-165.5 278.5625 -165.5 278.5625 -165.4375 275.5625 C-164.36690111 272.13658356 -162.99081167 270.12879082 -160.5 267.5625 C-159.84 267.5625 -159.18 267.5625 -158.5 267.5625 C-158.60022461 266.88455887 -158.70044922 266.20661774 -158.80371094 265.50813293 C-159.84610915 258.45225965 -160.88349346 251.39566218 -161.91796875 244.33862305 C-162.30430169 241.70490377 -162.6927137 239.07151494 -163.08203125 236.43823242 C-163.64138527 232.65331777 -164.19613977 228.86775322 -164.75 225.08203125 C-165.01248535 223.3161541 -165.01248535 223.3161541 -165.28027344 221.51460266 C-165.44043945 220.41383896 -165.60060547 219.31307526 -165.765625 218.17895508 C-165.90774414 217.21298904 -166.04986328 216.24702301 -166.19628906 215.25178528 C-166.4888151 212.66153955 -166.55561679 210.16648607 -166.5 207.5625 C-167.551875 207.500625 -168.60375 207.43875 -169.6875 207.375 C-174.17775398 206.41806063 -175.64983129 205.08329664 -178.5 201.5625 C-180.26074588 196.28026236 -180.29625804 192.18564139 -177.875 187.25 C-175.2141257 184.23901066 -173.2718078 182.92035081 -169.5 181.5625 C-166.125 181.375 -166.125 181.375 -163.5 181.5625 C-163.2417041 180.28511963 -162.9834082 179.00773926 -162.71728516 177.69165039 C-161.5531987 172.46626505 -159.85394112 167.52042157 -158.0234375 162.49609375 C-157.69332672 161.57659439 -157.36321594 160.65709503 -157.02310181 159.70973206 C-155.97882547 156.80462459 -154.92705058 153.90229995 -153.875 151 C-153.16095876 149.01775801 -152.44741225 147.03533773 -151.734375 145.05273438 C-149.99529451 140.22057684 -148.24948875 135.39089844 -146.5 130.5625 C-147.13228516 129.96501953 -147.13228516 129.96501953 -147.77734375 129.35546875 C-148.32519531 128.82566406 -148.87304688 128.29585938 -149.4375 127.75 C-149.98277344 127.22792969 -150.52804688 126.70585938 -151.08984375 126.16796875 C-153.79925634 123.08329126 -153.83296796 119.60235046 -153.7890625 115.62890625 C-153.31603804 112.2474206 -151.6444493 110.13583916 -149.5 107.5625 C-146.13000798 105.31583866 -144.93894538 105.3167629 -141 105.375 C-140.0409375 105.38144531 -139.081875 105.38789062 -138.09375 105.39453125 C-135.5 105.5625 -135.5 105.5625 -132.5 106.5625 C-130.14652923 105.1238526 -130.14652923 105.1238526 -127.6875 102.9375 C-126.71296875 102.11121094 -125.7384375 101.28492187 -124.734375 100.43359375 C-120.62227587 96.8221972 -116.63846021 93.07257337 -112.65454102 89.32104492 C-107.80989132 84.78149592 -102.78165164 80.5906721 -97.5 76.5625 C-97.83 75.5725 -98.16 74.5825 -98.5 73.5625 C-99.03776267 68.93421475 -98.91295228 65.45447693 -96.9375 61.1875 C-93.89603219 57.91207313 -91.83567149 56.69972531 -87.5 55.5625 C-82.95325351 55.8159504 -79.54084251 56.75013512 -75.9375 59.5625 C-74.5 61.5625 -74.5 61.5625 -74.5 63.5625 C-68.79309518 62.06962269 -63.08631401 60.57627385 -57.37963867 59.08251953 C-55.44510089 58.57621033 -53.51053148 58.07002193 -51.57592773 57.56396484 C-49.69645812 57.0723139 -47.81703278 56.58049365 -45.93765259 56.08850098 C-44.08551992 55.60365778 -42.23328647 55.11919939 -40.38095093 54.63513184 C-36.2116422 53.5437687 -32.04527836 52.44404059 -27.88720703 51.31054688 C-27.19285049 51.12196106 -26.49849396 50.93337524 -25.78309631 50.73907471 C-23.95551521 50.24103408 -22.12919248 49.73838208 -20.30297852 49.23535156 C-17.5 48.5625 -17.5 48.5625 -14.5 48.5625 C-14.479375 47.86125 -14.45875 47.16 -14.4375 46.4375 C-13.05696645 42.20386379 -10.1397398 40.00571116 -6.5 37.5625 C-4.85 36.9025 -3.2 36.2425 -1.5 35.5625 C-1.5 27.6425 -1.5 19.7225 -1.5 11.5625 C-3.48 10.5725 -3.48 10.5725 -5.5 9.5625 C-6.4375 7.75 -6.4375 7.75 -6.5 5.5625 C-5.0246841 1.50538128 -4.33521338 0.69673072 0 0 Z M-21.52294922 53.81591797 C-22.59431122 54.08975311 -23.66567322 54.36358826 -24.76950073 54.64572144 C-29.67409106 55.90678809 -34.57857392 57.16823693 -39.48193359 58.43408203 C-42.07290999 59.10268962 -44.66471364 59.76793375 -47.25732422 60.43017578 C-50.98289469 61.38280923 -54.70647347 62.34289103 -58.4296875 63.3046875 C-59.59225067 63.60059784 -60.75481384 63.89650818 -61.9526062 64.2013855 C-63.56910568 64.6215947 -63.56910568 64.6215947 -65.21826172 65.05029297 C-66.16788788 65.29456024 -67.11751404 65.53882751 -68.09591675 65.79049683 C-70.72199515 66.51279349 -70.72199515 66.51279349 -73.5 68.5625 C-74.41890424 70.92862547 -74.41890424 70.92862547 -73.5 73.5625 C-66.39210526 78.46906913 -58.63261938 82.41652707 -51.0625 86.5625 C-49.14489952 87.61564221 -47.2276516 88.66942195 -45.31063843 89.72363281 C-44.07571964 90.40170809 -42.83991444 91.07817178 -41.60317993 91.75292969 C-38.94437219 93.20531565 -36.30399342 94.67752142 -33.69091797 96.2109375 C-32.89443848 96.67757812 -32.09795898 97.14421875 -31.27734375 97.625 C-30.60823975 98.02847656 -29.93913574 98.43195313 -29.24975586 98.84765625 C-27.31095776 99.86144577 -27.31095776 99.86144577 -24.5 98.5625 C-23.79875 97.77875 -23.0975 96.995 -22.375 96.1875 C-19.32399458 93.40179939 -18.73478716 93.35482242 -14.9375 92.75 C-12.50466236 92.20341387 -12.50466236 92.20341387 -10.5 90.5625 C-7.22422483 82.73455771 -6.10166978 73.98587686 -5.5 65.5625 C-6.86125 64.8509375 -6.86125 64.8509375 -8.25 64.125 C-12.49290621 61.36007297 -13.82732629 57.16727232 -15.5 52.5625 C-17.53236007 52.5625 -19.5715614 53.31640564 -21.52294922 53.81591797 Z M13.5 58.5625 C12.819375 59.325625 12.13875 60.08875 11.4375 60.875 C7.45234814 64.52099 3.61452386 65.85765871 -1.5 67.5625 C-2.3685347 70.13216474 -3.03797604 72.55293648 -3.625 75.1875 C-3.79386719 75.88746094 -3.96273437 76.58742188 -4.13671875 77.30859375 C-5.17289876 81.70623961 -5.92378918 86.08216691 -6.5 90.5625 C-5.89671875 90.84222656 -5.2934375 91.12195313 -4.671875 91.41015625 C0.91361138 94.21190829 4.45960827 96.53865068 6.5 102.5625 C6.7482142 104.30215632 6.94436932 106.04986726 7.09375 107.80078125 C7.17302734 108.69450439 7.25230469 109.58822754 7.33398438 110.5090332 C7.38876953 111.18667725 7.44355469 111.86432129 7.5 112.5625 C13.95404215 114.73378093 20.41409462 116.8863845 26.87866211 119.02612305 C29.07703117 119.75620931 31.27398953 120.4905577 33.46948242 121.22924805 C36.62577797 122.29038562 39.7868317 123.33608477 42.94921875 124.37890625 C43.92960617 124.71217422 44.90999359 125.0454422 45.92008972 125.3888092 C46.84066666 125.68919601 47.76124359 125.98958282 48.7097168 126.29907227 C49.5157988 126.56776627 50.3218808 126.83646027 51.15238953 127.11329651 C53.9542019 127.64940925 55.77644637 127.38234408 58.5 126.5625 C60.88038607 124.8547687 63.08372556 123.1360897 65.3125 121.25 C66.6309714 120.16312731 67.95135343 119.07856906 69.2734375 117.99609375 C69.95889648 117.43390137 70.64435547 116.87170898 71.35058594 116.29248047 C74.9769557 113.37375533 78.70405297 110.59211912 82.4375 107.8125 C83.14173096 107.28744873 83.84596191 106.76239746 84.5715332 106.22143555 C86.21282784 104.99973539 87.85617251 103.78079002 89.5 102.5625 C89.18289063 101.85738281 88.86578125 101.15226562 88.5390625 100.42578125 C86.89974682 95.90841887 86.84398268 91.32092714 86.5 86.5625 C78.7174864 83.28595317 70.90341306 80.11315447 63.03125 77.05859375 C61.98908325 76.65343033 60.9469165 76.24826691 59.87316895 75.83082581 C57.68869805 74.98222165 55.50392092 74.13440541 53.31884766 73.28735352 C50.00689874 72.00267597 46.69677887 70.71336318 43.38671875 69.42382812 C41.24750593 68.5934663 39.10818654 67.76337898 36.96875 66.93359375 C35.99651489 66.55432236 35.02427979 66.17505096 34.02258301 65.7842865 C27.24762705 63.16496688 20.40838912 60.80537319 13.5 58.5625 Z M-78.34375 79.046875 C-81.07899408 80.9694741 -82.69111904 80.90340332 -86 80.8125 C-87.40765625 80.78929688 -87.40765625 80.78929688 -88.84375 80.765625 C-91.5 80.5625 -91.5 80.5625 -93.52734375 79.7734375 C-95.72956962 79.31350922 -95.72956962 79.31350922 -97.91015625 81.3359375 C-98.78542969 82.19445312 -99.66070312 83.05296875 -100.5625 83.9375 C-101.54196707 84.87610789 -102.52379874 85.8122536 -103.5078125 86.74609375 C-104.00571289 87.22159668 -104.50361328 87.69709961 -105.01660156 88.18701172 C-107.23176216 90.24102996 -109.57763617 92.11552902 -111.9375 94 C-112.82824219 94.73347656 -113.71898437 95.46695313 -114.63671875 96.22265625 C-116.13412073 97.44631763 -117.63495085 98.66653038 -119.16650391 99.84716797 C-126.34373671 105.01859269 -126.34373671 105.01859269 -130.03125 112.6015625 C-129.76687294 115.38486544 -129.24483863 117.8738142 -128.5 120.5625 C-128.5 121.5525 -128.5 122.5425 -128.5 123.5625 C-126.58452003 125.1119455 -126.58452003 125.1119455 -124.0390625 126.48828125 C-123.09160156 127.03806641 -122.14414063 127.58785156 -121.16796875 128.15429688 C-120.16378906 128.72212891 -119.15960938 129.28996094 -118.125 129.875 C-116.17951603 130.99579617 -114.2342026 132.1168884 -112.2890625 133.23828125 C-111.33161133 133.78564941 -110.37416016 134.33301758 -109.38769531 134.89697266 C-105.05715069 137.39468786 -100.77591271 139.97265608 -96.5 142.5625 C-95.70203003 141.98640991 -95.70203003 141.98640991 -94.88793945 141.39868164 C-89.82645876 137.81643881 -86.6676104 136.85474143 -80.5 137.5625 C-78.83066942 138.2224679 -77.1635479 138.88808869 -75.5 139.5625 C-71.70406051 139.09473124 -68.76964698 137.85734002 -65.40234375 136.0859375 C-64.44142822 135.58320313 -63.4805127 135.08046875 -62.49047852 134.5625 C-61.48299561 134.02625 -60.4755127 133.49 -59.4375 132.9375 C-58.40488037 132.39351562 -57.37226074 131.84953125 -56.30834961 131.2890625 C-50.0790147 127.98953302 -43.94236441 124.5864598 -37.89453125 120.96484375 C-34.51012716 118.98278654 -31.03374915 117.26141786 -27.5 115.5625 C-27.5 111.2725 -27.5 106.9825 -27.5 102.5625 C-28.39605957 102.08941406 -29.29211914 101.61632812 -30.21533203 101.12890625 C-33.61242009 99.33456077 -37.00784462 97.53708589 -40.40283203 95.73876953 C-41.85877621 94.96808847 -43.31514136 94.19820205 -44.77197266 93.42919922 C-46.89343108 92.30917458 -49.01353801 91.18665125 -51.1328125 90.0625 C-51.83166565 89.69205566 -52.5305188 89.32161133 -53.25054932 88.93994141 C-59.17290568 85.7802528 -64.9684062 82.42613334 -70.73779297 78.99609375 C-73.92893732 77.33988024 -75.43672628 76.70647454 -78.34375 79.046875 Z M91.5 104.5625 C90.68660156 105.20574219 89.87320313 105.84898438 89.03515625 106.51171875 C79.59711858 113.95920369 70.06617261 121.28055211 60.5 128.5625 C63.88631718 130.40099409 67.34815516 131.55964028 71.015625 132.7265625 C72.26601563 133.12617188 73.51640625 133.52578125 74.8046875 133.9375 C76.11976925 134.35423742 77.43487371 134.77090318 78.75 135.1875 C80.08082453 135.61168008 81.41155479 136.03615608 82.7421875 136.4609375 C85.99387561 137.49770762 89.24649692 138.53144244 92.5 139.5625 C92.92410156 139.07652344 93.34820312 138.59054688 93.78515625 138.08984375 C95.5 136.5625 95.5 136.5625 98.9375 136.125 C102.5 136.5625 102.5 136.5625 105 138.0625 C107.31616593 141.92277654 106.54913219 144.22608695 105.5 148.5625 C102.5 150.5625 102.5 150.5625 99.00390625 150.03125 C94.41910187 149.92226265 92.39550621 152.02049216 89.15234375 155.09375 C87.21126379 157.05051401 85.32268544 159.05206048 83.4375 161.0625 C82.47514169 162.05646685 81.51096076 163.04867244 80.54492188 164.0390625 C76.62372661 168.08301707 72.78438298 172.18437479 69.125 176.46875 C63.94064137 182.48022737 58.19302262 187.97413273 52.5625 193.5625 C51.38973991 194.73023374 50.21721202 195.89820074 49.04492188 197.06640625 C46.19928311 199.90113234 43.35052547 202.73268824 40.5 205.5625 C41.16 205.8925 41.82 206.2225 42.5 206.5625 C44.43514531 205.87298941 44.43514531 205.87298941 46.58129883 204.7109375 C47.85358086 204.06194489 47.85358086 204.06194489 49.15156555 203.39984131 C50.54027107 202.67598236 50.54027107 202.67598236 51.95703125 201.9375 C52.91993576 201.44348694 53.88284027 200.94947388 54.87492371 200.44049072 C58.02476759 198.82210704 61.16863834 197.19246989 64.3125 195.5625 C66.46254627 194.45473504 68.61293767 193.34763968 70.76367188 192.24121094 C76.05498013 189.51696411 81.34162442 186.78380336 86.62701416 184.0480957 C90.68942363 181.94745951 94.7566615 179.85626979 98.82421875 177.765625 C112.29216932 170.90426105 112.29216932 170.90426105 125.5 163.5625 C125.44779297 162.69238281 125.44779297 162.69238281 125.39453125 161.8046875 C125.21295906 156.56503301 125.60934713 153.12083721 128.5 148.5625 C129.49 147.5725 129.49 147.5725 130.5 146.5625 C130.14448972 142.7828644 128.8177502 139.93641134 126.98828125 136.6484375 C126.47716797 135.72160156 125.96605469 134.79476562 125.43945312 133.83984375 C124.63411133 132.40318359 124.63411133 132.40318359 123.8125 130.9375 C122.76692708 129.04947917 121.72135417 127.16145833 120.67578125 125.2734375 C120.15709473 124.34241211 119.6384082 123.41138672 119.10400391 122.45214844 C116.54223192 117.83705967 114.02080489 113.20005867 111.5 108.5625 C110.81421875 108.59327637 110.1284375 108.62405273 109.421875 108.65576172 C102.49978958 108.92510899 97.70602429 107.66551214 91.5 104.5625 Z M6.5 115.5625 C5.7575 116.490625 5.015 117.41875 4.25 118.375 C0.6547942 122.81921942 -3.26450866 124.51776656 -8.875 125.25 C-10.07125 125.353125 -11.2675 125.45625 -12.5 125.5625 C-14.43048825 134.34892782 -15.62164666 143.19972939 -16.78710938 152.11279297 C-17.12524304 154.68935192 -17.47250186 157.26457542 -17.8203125 159.83984375 C-18.03961636 161.49992693 -18.25838475 163.16008095 -18.4765625 164.8203125 C-18.57965729 165.57885529 -18.68275208 166.33739807 -18.78897095 167.118927 C-19.41360959 171.97410032 -19.59067232 176.66688706 -19.5 181.5625 C-17.24957657 182.41567249 -17.24957657 182.41567249 -14.5 182.5625 C-11.93291043 181.05901221 -11.93291043 181.05901221 -9.5 178.75 C-8.53320312 177.91339844 -7.56640625 177.07679688 -6.5703125 176.21484375 C-6.06532227 175.77382324 -5.56033203 175.33280273 -5.04003906 174.87841797 C-2.55943005 172.75881072 0.03170194 170.79159589 2.625 168.8125 C3.15802734 168.40475342 3.69105469 167.99700684 4.24023438 167.5769043 C5.37730372 166.70735141 6.51502249 165.83864723 7.65332031 164.97070312 C10.37480532 162.8954089 13.09282866 160.81559458 15.8112793 158.73632812 C17.27083726 157.62012853 18.73063564 156.50424324 20.19067383 155.38867188 C23.48153589 152.87385499 26.77063122 150.35690373 30.05078125 147.828125 C30.59839111 147.40595703 31.14600098 146.98378906 31.71020508 146.54882812 C33.27611662 145.34057336 34.84119337 144.13123694 36.40625 142.921875 C38.58054848 141.26369788 40.76185067 139.62892752 42.96875 138.015625 C43.52973389 137.60344727 44.09071777 137.19126953 44.66870117 136.76660156 C46.21928553 135.63078067 47.77548664 134.50263905 49.33203125 133.375 C50.04746094 132.776875 50.76289063 132.17875 51.5 131.5625 C51.5 130.9025 51.5 130.2425 51.5 129.5625 C45.41410242 127.56457362 39.32672454 125.57120975 33.23828125 123.58105469 C31.16599466 122.90307636 29.09405293 122.22404303 27.02246094 121.54394531 C24.04972298 120.56820453 21.07577719 119.59622867 18.1015625 118.625 C16.70618759 118.16565063 16.70618759 118.16565063 15.28262329 117.69702148 C14.42188202 117.41673096 13.56114075 117.13644043 12.67431641 116.84765625 C11.91486725 116.59894775 11.15541809 116.35023926 10.37295532 116.09399414 C8.50381263 115.47150197 8.50381263 115.47150197 6.5 115.5625 Z M-28.71630859 119.24658203 C-29.51891113 119.68341309 -30.32151367 120.12024414 -31.1484375 120.5703125 C-32.06165771 121.05725586 -32.97487793 121.54419922 -33.91577148 122.04589844 C-34.89231689 122.58762695 -35.8688623 123.12935547 -36.875 123.6875 C-37.88054932 124.22922852 -38.88609863 124.77095703 -39.92211914 125.32910156 C-43.12326317 127.05837217 -46.31165926 128.8097548 -49.5 130.5625 C-51.6360074 131.72266482 -53.7727149 132.88154166 -55.91015625 134.0390625 C-61.11627915 136.8630174 -66.31194085 139.70550771 -71.5 142.5625 C-71.00113281 144.16931641 -71.00113281 144.16931641 -70.4921875 145.80859375 C-68.9613102 151.60061377 -69.51975842 155.48438784 -72.0625 160.875 C-75.28916157 164.43260122 -77.93447133 165.1928414 -82.5 166.5625 C-81.94888943 174.13317639 -80.90277376 181.47412594 -79.43359375 188.91796875 C-79.23524429 189.94561844 -79.03689484 190.97326813 -78.83253479 192.03205872 C-78.20591911 195.27237881 -77.57184724 198.51118561 -76.9375 201.75 C-76.50796691 203.96409642 -76.07892592 206.17828837 -75.65039062 208.39257812 C-74.6059408 213.78366835 -73.55538692 219.1735408 -72.5 224.5625 C-71.74871826 224.69382324 -70.99743652 224.82514648 -70.22338867 224.96044922 C-69.2357251 225.13592285 -68.24806152 225.31139648 -67.23046875 225.4921875 C-66.25231201 225.66476074 -65.27415527 225.83733398 -64.26635742 226.01513672 C-61.23673102 226.61459152 -58.3879632 227.46975717 -55.5 228.5625 C-51.75472331 223.97766208 -48.02313527 219.38217775 -44.30126953 214.77832031 C-42.59759524 212.68255617 -40.87713195 210.60183045 -39.15234375 208.5234375 C-38.14274669 207.28685209 -37.133609 206.04989145 -36.125 204.8125 C-35.64313232 204.24128418 -35.16126465 203.67006836 -34.66479492 203.08154297 C-32.13286885 200.11909648 -32.13286885 200.11909648 -31.6875 196.41796875 C-31.955625 195.80566406 -32.22375 195.19335938 -32.5 194.5625 C-33.17764706 187.44720588 -33.17764706 187.44720588 -30.25 183.625 C-27.71204538 181.72153404 -26.48214819 181.16785059 -23.5 180.5625 C-22.49834215 173.39152469 -21.50197564 166.21982848 -20.50927734 159.04760742 C-20.17097699 156.6079851 -19.83146748 154.16853014 -19.49072266 151.72924805 C-19.00104575 148.22227625 -18.51572601 144.71472483 -18.03125 141.20703125 C-17.87813354 140.11727493 -17.72501709 139.02751862 -17.56726074 137.90473938 C-17.42711548 136.88405869 -17.28697021 135.86337799 -17.14257812 134.81176758 C-17.01822388 133.91686111 -16.89386963 133.02195465 -16.76574707 132.09992981 C-16.49556675 129.52017006 -16.26240113 127.14946538 -16.5 124.5625 C-19.22388597 122.27415977 -19.22388597 122.27415977 -22.5 120.5625 C-23.13115723 120.15370605 -23.76231445 119.74491211 -24.41259766 119.32373047 C-26.50934339 118.32083895 -26.50934339 118.32083895 -28.71630859 119.24658203 Z M-133.1875 128 C-136.21246241 130.04389352 -138.91581145 130.13273118 -142.5 130.5625 C-144.58673333 136.34058603 -146.66780771 142.12066868 -148.74389648 147.90258789 C-149.4494145 149.86504663 -150.15641637 151.82697263 -150.86499023 153.78833008 C-151.889263 156.62438905 -152.90800066 159.46238691 -153.92578125 162.30078125 C-154.23840408 163.16270584 -154.55102692 164.02463043 -154.87312317 164.91267395 C-157.06665862 171.05313772 -158.86299613 177.25170484 -160.5 183.5625 C-159.86707031 184.17609375 -159.23414063 184.7896875 -158.58203125 185.421875 C-156.22654804 187.8436476 -155.31878113 189.2873755 -154.5 192.5625 C-154.70204972 195.25259199 -155.12082674 197.88919214 -155.5 200.5625 C-154.40328979 201.12964722 -154.40328979 201.12964722 -153.28442383 201.70825195 C-149.95958326 203.42883387 -146.63603147 205.15189085 -143.3125 206.875 C-142.16201172 207.46990234 -141.01152344 208.06480469 -139.82617188 208.67773438 C-138.71435547 209.25458984 -137.60253906 209.83144531 -136.45703125 210.42578125 C-134.92526245 211.21915894 -134.92526245 211.21915894 -133.36254883 212.02856445 C-130.5 213.5625 -130.5 213.5625 -127.81518555 215.25854492 C-125.50720238 216.80786833 -125.50720238 216.80786833 -122.5 216.5625 C-121.95811035 215.59147339 -121.95811035 215.59147339 -121.40527344 214.60083008 C-114.91716736 202.98023454 -108.41662983 191.36765694 -101.8125 179.8125 C-101.32040039 178.95116455 -100.82830078 178.0898291 -100.32128906 177.20239258 C-99.86077148 176.39825928 -99.40025391 175.59412598 -98.92578125 174.765625 C-98.50458008 174.02900635 -98.08337891 173.2923877 -97.64941406 172.53344727 C-96.67881426 170.86912011 -95.65910861 169.23357561 -94.62890625 167.60546875 C-94.25636719 166.93128906 -93.88382812 166.25710937 -93.5 165.5625 C-94.06362302 163.51413118 -94.06362302 163.51413118 -95.5 161.5625 C-98.05146444 157.4409036 -98.50717015 155.44037217 -97.6875 150.8125 C-97.44645458 148.15317567 -97.44645458 148.15317567 -98.5 145.5625 C-102.73448795 141.98999273 -107.36239327 139.42695372 -112.22802734 136.80908203 C-115.85770445 134.81755707 -119.35368668 132.61290068 -122.875 130.4375 C-127.93023198 126.59846974 -127.93023198 126.59846974 -133.1875 128 Z M48.46313477 135.13720703 C45.6135631 137.76455675 42.98420571 140.50651647 40.45068359 143.43945312 C37.25658 146.91578915 33.49464148 149.54892545 29.6875 152.3125 C28.27707755 153.38294725 26.86944778 154.45708561 25.46484375 155.53515625 C24.79565918 156.04578613 24.12647461 156.55641602 23.43701172 157.08251953 C19.49634013 160.09340322 15.56741488 163.11948149 11.640625 166.1484375 C9.42765645 167.84945064 7.2098832 169.54216304 4.984375 171.2265625 C4.40139648 171.6697583 3.81841797 172.1129541 3.21777344 172.56958008 C1.60536988 173.79492428 -0.00972269 175.01672779 -1.625 176.23828125 C-4.47422058 178.5416593 -6.96315584 180.92772619 -9.5 183.5625 C-3.22276245 181.52805832 2.95610488 179.30106106 9.11328125 176.9296875 C10.48166893 176.40546455 10.48166893 176.40546455 11.87770081 175.87065125 C14.85686471 174.72858951 17.83482709 173.58344317 20.8125 172.4375 C21.83224915 172.0452121 22.85199829 171.65292419 23.90264893 171.24874878 C24.93718201 170.8507608 25.97171509 170.45277283 27.03759766 170.04272461 C28.08687439 169.63907181 29.13615112 169.23541901 30.21722412 168.8195343 C32.37282115 167.9901651 34.52829683 167.16048042 36.68365479 166.33049011 C43.17868194 163.83153754 49.68100891 161.35296381 56.19090271 158.89300537 C60.27835225 157.34725829 64.36247552 155.79284586 68.44613647 154.23712158 C70.3963134 153.49661803 72.34799832 152.76007362 74.30117798 152.02752686 C77.01473139 151.00913394 79.7226473 149.97696382 82.4296875 148.94140625 C83.23781387 148.64215744 84.04594025 148.34290863 84.8785553 148.03459167 C86.78772303 147.29615601 88.65041864 146.43957323 90.5 145.5625 C90.83 144.5725 91.16 143.5825 91.5 142.5625 C69.99096639 132.06476647 69.99096639 132.06476647 48.46313477 135.13720703 Z M82.57763672 151.21459961 C81.06264336 151.7987413 81.06264336 151.7987413 79.51704407 152.39468384 C78.4157164 152.83033661 77.31438873 153.26598938 76.1796875 153.71484375 C75.02836838 154.16177582 73.87704926 154.60870789 72.69084167 155.06918335 C69.56317011 156.2853656 66.43894556 157.50972861 63.31599808 158.73794937 C60.08620917 160.0059891 56.85237183 161.26361436 53.61889648 162.5222168 C48.40338196 164.5537692 43.19026861 166.59136102 37.97900391 168.63378906 C31.21304087 171.28539303 24.4415891 173.92271264 17.66796875 176.5546875 C10.66368923 179.2782605 3.65968984 182.00253009 -3.33984375 184.73828125 C-4.04542923 185.01328461 -4.75101471 185.28828796 -5.47798157 185.57162476 C-9.03529751 186.96098295 -9.03529751 186.96098295 -12.5 188.5625 C-13.22319347 190.58258024 -13.22319347 190.58258024 -13.8125 192.9375 C-14.79538044 195.98297683 -15.29221937 197.36083056 -17.625 199.625 C-20.64428415 200.60954918 -21.66400351 200.39075785 -24.6875 199.9375 C-27.09674128 199.73142113 -27.09674128 199.73142113 -29.5 200.5625 C-32.87616586 203.94957432 -35.45347739 207.76218234 -38.15576172 211.69287109 C-40.80610784 215.37909532 -43.84745953 218.74415886 -46.83349609 222.15893555 C-49.40672736 225.14134965 -51.58262207 228.1200789 -53.5 231.5625 C-51.85 233.5425 -50.2 235.5225 -48.5 237.5625 C-28.02940276 232.00412395 -7.76355682 225.82479138 12.5 219.5625 C12.68393311 218.53189453 12.68393311 218.53189453 12.87158203 217.48046875 C13.04028809 216.57941406 13.20899414 215.67835938 13.3828125 214.75 C13.54668457 213.85667969 13.71055664 212.96335938 13.87939453 212.04296875 C14.87812 208.05121 16.82546978 205.60224099 20.29296875 203.44921875 C22.97693532 202.37088174 25.05136508 202.33096743 27.9375 202.375 C28.86433594 202.38144531 29.79117188 202.38789063 30.74609375 202.39453125 C33.5 202.5625 33.5 202.5625 35.91796875 203.4765625 C39.10167856 203.58252561 39.52131155 202.98601247 41.8046875 200.87890625 C43.01037419 199.64261161 44.1999934 198.39048976 45.375 197.125 C45.96152344 196.51978516 46.54804688 195.91457031 47.15234375 195.29101562 C50.11732848 192.20547657 52.967416 189.03748059 55.7565918 185.79272461 C59.33516088 181.69435693 63.10328896 177.83050824 66.96484375 174 C67.64301651 173.32324219 68.32118927 172.64648438 69.01991272 171.94921875 C71.15674305 169.81792325 73.29704823 167.69015782 75.4375 165.5625 C76.89932123 164.10570221 78.36091187 162.64867299 79.82226562 161.19140625 C83.378854 157.64576027 86.93856016 154.10327261 90.5 150.5625 C86.87796429 149.35515476 86.05531514 149.85553541 82.57763672 151.21459961 Z M-90.5 166.5625 C-92.13968908 168.4019301 -92.13968908 168.4019301 -93.4609375 170.93359375 C-94.00854736 171.88911133 -94.55615723 172.84462891 -95.12036133 173.82910156 C-95.69939209 174.87549805 -96.27842285 175.92189453 -96.875 177 C-97.47916748 178.06573242 -98.08333496 179.13146484 -98.70581055 180.22949219 C-100.3180819 183.07993966 -101.91674725 185.93754305 -103.51153564 188.79779053 C-104.83056254 191.15265466 -106.16647296 193.4976973 -107.50384521 195.84217834 C-109.11227805 198.66247632 -110.71230884 201.48751995 -112.3125 204.3125 C-113.21911377 205.90856079 -113.21911377 205.90856079 -114.14404297 207.53686523 C-114.7010791 208.53016846 -115.25811523 209.52347168 -115.83203125 210.546875 C-116.32421143 211.42053711 -116.8163916 212.29419922 -117.32348633 213.19433594 C-118.39007909 215.34124397 -119.0372868 217.22079834 -119.5 219.5625 C-115.59403137 221.73269391 -111.67969933 223.88668636 -107.75683594 226.02612305 C-106.4236934 226.75610779 -105.09293239 227.49045952 -103.76464844 228.22924805 C-101.8544127 229.29072807 -99.93615011 230.33618517 -98.015625 231.37890625 C-96.28747559 232.32938843 -96.28747559 232.32938843 -94.52441406 233.29907227 C-91.6888639 234.76221817 -91.6888639 234.76221817 -89.2019043 234.34521484 C-87.12184381 233.38858395 -85.7255617 232.19588276 -84.0625 230.625 C-81.36887186 228.08136508 -78.95388183 226.87871954 -75.5 225.5625 C-78.78694874 205.80992347 -82.46884157 186.17551578 -86.5 166.5625 C-87.82 166.5625 -89.14 166.5625 -90.5 166.5625 Z M126.5 166.5625 C125.36175781 167.16191406 124.22351563 167.76132813 123.05078125 168.37890625 C112.90375559 173.70338229 102.72779169 178.96569296 92.515625 184.1640625 C91.54002121 184.66105148 90.56441742 185.15804047 89.55924988 185.67008972 C84.62342963 188.18413077 79.68580819 190.69452631 74.74536133 193.19946289 C63.84718736 198.73942979 53.09124038 204.45490686 42.5 210.5625 C42.5095874 211.29114258 42.5191748 212.01978516 42.52905273 212.77050781 C42.58349025 216.90775928 42.57689907 220.55300728 41.5 224.5625 C42.61316707 225.43113593 43.72648184 226.29958257 44.83984375 227.16796875 C45.56518311 227.73378662 46.29052246 228.29960449 47.0378418 228.88256836 C48.65041343 230.13748345 50.26519852 231.38955892 51.88208008 232.63891602 C56.04000928 235.85316727 60.16767359 239.09271138 64.234375 242.421875 C64.98340088 243.02362549 65.73242676 243.62537598 66.50415039 244.24536133 C67.9328139 245.39350005 69.34934073 246.55694817 70.75170898 247.73706055 C71.40469971 248.2556665 72.05769043 248.77427246 72.73046875 249.30859375 C73.29145264 249.76935303 73.85243652 250.2301123 74.43041992 250.70483398 C80.22277683 253.10527634 87.89199543 249.30935137 93.5546875 247.4375 C94.96791794 246.97706299 94.96791794 246.97706299 96.40969849 246.50732422 C98.38894103 245.86114821 100.36727122 245.21217164 102.34472656 244.56054688 C105.3838771 243.55957625 108.42602987 242.56818535 111.46875 241.578125 C113.39341191 240.948475 115.31789754 240.31828582 117.2421875 239.6875 C118.15563934 239.38956543 119.06909119 239.09163086 120.01022339 238.78466797 C120.84844635 238.50768066 121.68666931 238.23069336 122.55029297 237.9453125 C123.2908493 237.70184082 124.03140564 237.45836914 124.79440308 237.20751953 C126.50556349 236.69402565 126.50556349 236.69402565 127.5 235.5625 C127.76921577 233.98232048 128.01543007 232.39819272 128.25 230.8125 C129.22337327 225.938681 130.26636473 223.47312425 134.5 220.5625 C137.7840768 219.32531333 141.08827388 218.37733944 144.5 217.5625 C144.03925595 207.9345381 143.0961173 198.38785341 142 188.8125 C141.80410278 187.0802417 141.80410278 187.0802417 141.60424805 185.31298828 C141.47703369 184.2248584 141.34981934 183.13672852 141.21875 182.015625 C141.10466797 181.03754883 140.99058594 180.05947266 140.87304688 179.05175781 C140.55454818 176.4392557 140.55454818 176.4392557 139.5 173.5625 C137.27449605 172.42436843 137.27449605 172.42436843 134.625 171.5625 C131.10411169 170.33070234 129.04236634 169.2679685 126.5 166.5625 Z M-163.5 206.5625 C-162.47668512 213.79526411 -161.45109154 221.02770125 -160.42260075 228.25973129 C-159.94508536 231.61798389 -159.4683508 234.97634344 -158.9934082 238.33496094 C-158.44715701 242.19759832 -157.89749604 246.05974675 -157.34765625 249.921875 C-157.1778273 251.1261615 -157.00799835 252.330448 -156.83302307 253.57122803 C-156.59288734 255.25251801 -156.59288734 255.25251801 -156.34790039 256.96777344 C-156.20800186 257.95372498 -156.06810333 258.93967651 -155.92396545 259.95550537 C-155.55826968 262.20419549 -155.0951656 264.36517176 -154.5 266.5625 C-152.59136131 266.4109717 -152.59136131 266.4109717 -150.5 265.5625 C-148.83174288 263.53196685 -148.83174288 263.53196685 -147.43359375 260.91796875 C-146.58885498 259.45037109 -146.58885498 259.45037109 -145.72705078 257.953125 C-145.13649902 256.89609375 -144.54594727 255.8390625 -143.9375 254.75 C-143.32632324 253.67878906 -142.71514648 252.60757813 -142.08544922 251.50390625 C-140.20699224 248.19915013 -138.34968005 244.88343796 -136.5 241.5625 C-135.93071777 240.5410791 -135.36143555 239.5196582 -134.77490234 238.46728516 C-131.65257251 232.84895275 -128.55966529 227.21519842 -125.5 221.5625 C-128.57747515 218.14920687 -131.68311902 216.19913269 -135.76171875 214.109375 C-136.3529805 213.80429016 -136.94424225 213.49920532 -137.55342102 213.18487549 C-138.79461295 212.54612457 -140.0376683 211.91098282 -141.2824707 211.27929688 C-143.19557341 210.30840277 -145.10304331 209.32710647 -147.00976562 208.34375 C-155.15274413 203.66597535 -155.15274413 203.66597535 -163.5 206.5625 Z M-122.5 222.5625 C-122.86649658 223.22032471 -123.23299316 223.87814941 -123.6105957 224.5559082 C-124.71350263 226.53412171 -125.81726008 228.51186115 -126.92163086 230.48925781 C-128.18828276 232.75729249 -129.45340558 235.02618176 -130.71704102 237.29589844 C-133.71599998 242.66528977 -136.73936746 248.00959755 -139.9140625 253.27734375 C-140.42670654 254.13352295 -140.93935059 254.98970215 -141.4675293 255.87182617 C-142.42808015 257.46668199 -143.40045487 259.05449189 -144.38598633 260.6340332 C-145.028302 261.70463989 -145.028302 261.70463989 -145.68359375 262.796875 C-146.24904907 263.71291504 -146.24904907 263.71291504 -146.82592773 264.64746094 C-147.73177733 267.2209793 -147.2015272 268.97301879 -146.5 271.5625 C-136.4201608 269.07767461 -126.61725345 265.70299431 -116.78076172 262.40966797 C-113.84881941 261.42874087 -110.91476261 260.45433604 -107.98046875 259.48046875 C-106.11966308 258.85976036 -104.2589813 258.23868041 -102.3984375 257.6171875 C-101.51940765 257.32552704 -100.64037781 257.03386658 -99.73471069 256.73336792 C-98.92941925 256.462836 -98.12412781 256.19230408 -97.29443359 255.91357422 C-96.58370697 255.67613495 -95.87298035 255.43869568 -95.14071655 255.19406128 C-93.48722242 254.68501839 -93.48722242 254.68501839 -92.5 253.5625 C-92.29000055 251.60833843 -92.13167366 249.64849701 -92 247.6875 C-91.77652749 244.37531812 -91.55207935 241.71873804 -90.5 238.5625 C-93.99869876 236.64345109 -97.49919295 234.72769979 -101 232.8125 C-101.98226562 232.27367187 -102.96453125 231.73484375 -103.9765625 231.1796875 C-112.83599034 225.46761998 -112.83599034 225.46761998 -122.5 222.5625 Z M12.5 222.5625 C11.85155624 222.758508 11.20311249 222.95451599 10.53501892 223.15646362 C3.77036324 225.20113336 -2.99451501 227.24506542 -9.75952148 229.28857422 C-12.28236484 230.05075569 -14.80515188 230.81312362 -17.32788086 231.57568359 C-20.95932368 232.67334533 -24.59097022 233.77033075 -28.22265625 234.8671875 C-29.90742821 235.37667435 -29.90742821 235.37667435 -31.62623596 235.89645386 C-36.90709985 237.49071949 -42.1899573 239.0681165 -47.5 240.5625 C-47.29375 241.84125 -47.0875 243.12 -46.875 244.4375 C-46.03356235 249.65441344 -47.35960965 254.48325326 -48.5 259.5625 C-43.16611928 261.44578423 -37.8276272 263.31510167 -32.484375 265.17163086 C-30.66728298 265.80517946 -28.85151107 266.44252754 -27.03710938 267.08374023 C-24.42916013 268.00465448 -21.81677179 268.91180924 -19.203125 269.81640625 C-18.39256653 270.10592667 -17.58200806 270.39544708 -16.74688721 270.69374084 C-15.98640076 270.95408615 -15.22591431 271.21443146 -14.44238281 271.48266602 C-13.77619934 271.71583023 -13.11001587 271.94899445 -12.42364502 272.18922424 C-10.09759586 272.64058494 -8.71648035 272.37113153 -6.5 271.5625 C-5.736875 270.9025 -4.97375 270.2425 -4.1875 269.5625 C-1.5 267.5625 -1.5 267.5625 2 267.5625 C5.52301112 266.96018827 5.52301112 266.96018827 6.77734375 264.68359375 C7.89212447 262.10495956 8.85120887 259.50958872 9.734375 256.84326172 C10.6658431 254.06846102 11.6632715 251.31978155 12.65625 248.56640625 C13.41937614 246.39938975 14.17976678 244.23140811 14.9375 242.0625 C15.31640381 240.9995874 15.69530762 239.9366748 16.08569336 238.84155273 C16.42737549 237.83165283 16.76905762 236.82175293 17.12109375 235.78125 C17.4348999 234.87310547 17.74870605 233.96496094 18.07202148 233.02929688 C18.59699486 230.00343776 18.23577405 229.06165942 16.5 226.5625 C15.17836636 225.21756875 13.84617005 223.88287182 12.5 222.5625 Z M38.5 227.5625 C37.675 228.036875 36.85 228.51125 36 229 C32.41285084 230.60140587 30.62329931 230.73120006 26.78125 230.66015625 C25.79189453 230.64605713 24.80253906 230.63195801 23.78320312 230.61743164 C23.02974609 230.5993042 22.27628906 230.58117676 21.5 230.5625 C19.73509034 235.46713909 17.99008654 240.37823663 16.26318359 245.29638672 C15.67290921 246.96856037 15.07723378 248.63883764 14.47607422 250.30712891 C13.61300448 252.70517886 12.76957262 255.10937253 11.9296875 257.515625 C11.65687958 258.26056213 11.38407166 259.00549927 11.10299683 259.77301025 C9.69278553 263.76973409 9.69278553 263.76973409 10.16064453 267.87792969 C12.15564811 270.38892336 12.15564811 270.38892336 14.5 272.5625 C16.47175223 272.60662516 16.47175223 272.60662516 18.55786133 271.94921875 C19.3564859 271.7382959 20.15511047 271.52737305 20.97793579 271.31005859 C25.1988307 270.05895394 29.39451072 268.758065 33.57421875 267.375 C34.50168411 267.07182861 35.42914948 266.76865723 36.38471985 266.45629883 C39.32029998 265.4956731 42.25390797 264.52917784 45.1875 263.5625 C47.16719107 262.91367598 49.14700773 262.26523502 51.12695312 261.6171875 C58.25663963 259.28166727 65.38461657 256.94130518 72.5 254.5625 C71.18100539 251.5304677 69.93372714 249.83445921 67.26171875 247.8984375 C66.61227295 247.42059814 65.96282715 246.94275879 65.29370117 246.45043945 C64.59865479 245.95116943 63.9036084 245.45189941 63.1875 244.9375 C61.73892408 243.87720216 60.2910176 242.81598919 58.84375 241.75390625 C58.11671875 241.22297363 57.3896875 240.69204102 56.640625 240.14501953 C52.38182871 236.99658003 48.23641184 233.70017907 44.07421875 230.42578125 C41.57551381 228.42095494 41.57551381 228.42095494 38.5 227.5625 Z M121.19042969 240.84765625 C119.9295755 241.26809204 119.9295755 241.26809204 118.64324951 241.69702148 C117.74519592 242.00325439 116.84714233 242.3094873 115.921875 242.625 C114.9953009 242.93574463 114.06872681 243.24648926 113.11407471 243.56665039 C110.15745746 244.55964797 107.20373248 245.56095807 104.25 246.5625 C102.24497664 247.23752885 100.23977037 247.91201463 98.234375 248.5859375 C93.32077736 250.23849788 88.40952784 251.8978904 83.5 253.5625 C83.5 254.5525 83.5 255.5425 83.5 256.5625 C85.76752291 258.60595938 88.01824645 260.46501266 90.4375 262.3125 C91.12175049 262.84383545 91.80600098 263.3751709 92.51098633 263.92260742 C93.87801186 264.98384031 95.24736508 266.04208223 96.61914062 267.09716797 C98.22396589 268.3474485 99.79547766 269.64029494 101.359375 270.94140625 C102.51179688 271.89853516 102.51179688 271.89853516 103.6875 272.875 C104.34105469 273.42800781 104.99460937 273.98101562 105.66796875 274.55078125 C107.44920392 275.76163836 107.44920392 275.76163836 109.51953125 275.35546875 C111.4811554 274.57004527 113.18700621 273.64393489 115 272.5625 C120.30326906 269.79033663 125.59551056 269.83088588 131.5 269.5625 C134.14 262.3025 136.78 255.0425 139.5 247.5625 C136.86 245.9125 134.22 244.2625 131.5 242.5625 C130.84 241.5725 130.18 240.5825 129.5 239.5625 C126.05850619 239.5625 124.32188743 239.79126087 121.19042969 240.84765625 Z M68.73754883 258.2590332 C67.00103813 258.81510002 67.00103813 258.81510002 65.22944641 259.38240051 C63.98454941 259.78859116 62.7396524 260.1947818 61.45703125 260.61328125 C60.16482421 261.03224785 58.87256163 261.45104322 57.58024597 261.86967468 C54.87639927 262.74734856 52.17420179 263.62990599 49.47290039 264.51538086 C46.00643599 265.65079039 42.53484641 266.76956223 39.06166553 267.88422871 C36.39360224 268.7433209 33.72918336 269.6132957 31.06567955 270.48641014 C29.16408175 271.10690192 27.25890544 271.71639157 25.35371399 272.32575989 C24.20549667 272.70592758 23.05727936 273.08609528 21.87426758 273.4777832 C20.35015007 273.97408989 20.35015007 273.97408989 18.79524231 274.48042297 C17.65909737 275.0160511 17.65909737 275.0160511 16.5 275.5625 C16.17 276.5525 15.84 277.5425 15.5 278.5625 C22.98047193 279.7735027 30.46140465 280.98162993 37.94262695 282.18798828 C40.47430314 282.59654469 43.00588273 283.00570019 45.53735352 283.41552734 C59.19630838 285.62638224 72.86006122 287.80129963 86.54296875 289.859375 C87.67398514 290.03180725 88.80500153 290.2042395 89.97029114 290.38189697 C91.01932114 290.53785339 92.06835114 290.69380981 93.14916992 290.85449219 C94.52319221 291.06051056 94.52319221 291.06051056 95.92497253 291.27069092 C98.47456286 291.55961739 100.93656571 291.61488023 103.5 291.5625 C103.70496094 290.79164063 103.90992188 290.02078125 104.12109375 289.2265625 C104.39050781 288.22367187 104.65992188 287.22078125 104.9375 286.1875 C105.20433594 285.18976563 105.47117187 284.19203125 105.74609375 283.1640625 C106.5 280.5625 106.5 280.5625 107.5 278.5625 C106.49582031 277.81226563 105.49164063 277.06203125 104.45703125 276.2890625 C103.8012207 275.79825195 103.14541016 275.30744141 102.46972656 274.80175781 C101.0232339 273.71934388 99.57595868 272.63797499 98.12792969 271.55761719 C94.61139041 268.92679366 91.11681141 266.27801331 87.68359375 263.5390625 C86.81093872 262.84756104 86.81093872 262.84756104 85.9206543 262.14208984 C84.3320845 260.87782693 82.75174224 259.60324627 81.171875 258.328125 C76.78708244 255.43057202 73.42043631 256.74866707 68.73754883 258.2590332 Z M-98.49047852 258.99609375 C-100.01204308 259.46789062 -100.01204308 259.46789062 -101.56434631 259.94921875 C-106.18307484 261.41344731 -110.79715729 262.89118244 -115.40600586 264.38623047 C-117.84115303 265.16960091 -120.28067261 265.93950895 -122.72436523 266.69580078 C-126.24518714 267.78647855 -129.74978655 268.91945811 -133.25390625 270.0625 C-134.34973526 270.39306396 -135.44556427 270.72362793 -136.57460022 271.06420898 C-141.93594817 272.68792333 -141.93594817 272.68792333 -145.70425415 276.52062988 C-146.48731641 278.91339529 -146.48731641 278.91339529 -146.5 282.5625 C-144.67355957 285.66917269 -144.67355957 285.66917269 -141.75 288.0625 C-140.82703125 288.9184375 -139.9040625 289.774375 -138.953125 290.65625 C-136.75457639 292.76703079 -136.75457639 292.76703079 -134.5 292.5625 C-134.5 293.2225 -134.5 293.8825 -134.5 294.5625 C-133.84 294.5625 -133.18 294.5625 -132.5 294.5625 C-132.5 295.2225 -132.5 295.8825 -132.5 296.5625 C-131.84 296.5625 -131.18 296.5625 -130.5 296.5625 C-130.17 297.5525 -129.84 298.5425 -129.5 299.5625 C-128.06070553 301.02396835 -128.06070553 301.02396835 -126.21875 302.47265625 C-120.13739191 307.63230851 -114.61278512 313.34300001 -109 319 C-107.88044368 320.1245833 -106.76065371 321.24893405 -105.640625 322.37304688 C-102.92438466 325.10019344 -100.21131708 327.83045907 -97.5 330.5625 C-93.52350201 330.04112525 -90.67311074 329.0521715 -87.5 326.5625 C-85.0460221 320.9961216 -84.10778973 315.21604603 -83.0625 309.25 C-82.75208861 307.66001289 -82.43766674 306.07080324 -82.11914062 304.48242188 C-81.49906159 301.35630598 -80.90572765 298.22706168 -80.33642578 295.09130859 C-79.79669441 292.12781212 -79.22501099 289.17447712 -78.61279297 286.22509766 C-78.40166115 285.20570854 -78.40166115 285.20570854 -78.18626404 284.16572571 C-77.80403923 282.3349004 -77.41767744 280.50494014 -77.03100586 278.67504883 C-76.55147407 275.86422091 -76.25035902 273.40097511 -76.5 270.5625 C-78.29092787 268.9002306 -78.29092787 268.9002306 -80.6875 267.6875 C-84.04200498 265.66531804 -86.22351012 263.97100456 -88.375 260.6875 C-89.07625 259.65625 -89.7775 258.625 -90.5 257.5625 C-93.56085774 257.5625 -95.58279646 258.0916338 -98.49047852 258.99609375 Z M-54.75 265.4375 C-60.1807576 270.1964113 -65.56556152 270.73036738 -72.5 271.5625 C-73.75012079 277.30483417 -74.99501182 283.04826979 -76.23535156 288.79272461 C-76.65681468 290.74126763 -77.07963333 292.68951802 -77.50390625 294.63745117 C-79.81277139 305.24243907 -82.07488354 315.79565653 -83.5 326.5625 C-82.92701172 326.82877197 -82.35402344 327.09504395 -81.76367188 327.36938477 C-78.41749249 328.93658784 -75.85313785 330.19955276 -73.25 332.875 C-72.6725 333.431875 -72.095 333.98875 -71.5 334.5625 C-67.35265192 334.33157861 -64.7542817 331.44454865 -61.8125 328.8125 C-56.76844339 324.41814454 -51.59328464 320.27448519 -46.25 316.25 C-39.56417769 311.20105925 -33.04358038 305.98981219 -26.63427734 300.59375 C-23.34425433 297.83751565 -20.05236343 295.19680673 -16.5078125 292.7734375 C-10.28692156 288.9676021 -10.28692156 288.9676021 -6.92578125 282.94921875 C-7.17023275 280.60321404 -7.70772513 278.76702524 -8.5 276.5625 C-16.31329317 273.2427895 -24.31103488 270.57207255 -32.38916016 267.98828125 C-34.52537273 267.30437697 -36.65923674 266.61347497 -38.79296875 265.921875 C-40.15351336 265.4839632 -41.51418574 265.04644812 -42.875 264.609375 C-44.09960938 264.21588867 -45.32421875 263.82240234 -46.5859375 263.41699219 C-50.87390596 262.15962878 -51.60541913 262.47706126 -54.75 265.4375 Z M13.0625 284.75 C11.26409398 287.36498224 11.26409398 287.36498224 11.7109375 289.86230469 C12.63927531 293.03910424 13.97842247 295.67067518 15.5625 298.578125 C15.8700975 299.14732666 16.17769501 299.71652832 16.49461365 300.30297852 C17.49045355 302.14278948 18.49517266 303.9775849 19.5 305.8125 C20.18437678 307.07351268 20.86804956 308.33490769 21.55102539 309.59667969 C22.90415992 312.09572226 24.25996192 314.59328649 25.61767578 317.08984375 C28.08837479 321.64797898 30.51977133 326.22610516 32.9375 330.8125 C33.30810547 331.51407227 33.67871094 332.21564453 34.06054688 332.93847656 C34.87442671 334.479433 35.68735293 336.02089309 36.5 337.5625 C37.0465625 337.40265625 37.593125 337.2428125 38.15625 337.078125 C40.81652466 336.49286457 43.27676936 336.35738842 46 336.3125 C46.9384375 336.28671875 47.876875 336.2609375 48.84375 336.234375 C51.5 336.5625 51.5 336.5625 53.53125 338.203125 C54.50578125 338.87601562 54.50578125 338.87601562 55.5 339.5625 C60.36059438 338.5803936 64.1845258 334.94128543 68 331.9375 C69.50879605 330.76651655 71.01792676 329.59596419 72.52734375 328.42578125 C73.32769043 327.80268066 74.12803711 327.17958008 74.95263672 326.53759766 C79.46689882 323.03746536 84.0164309 319.58365066 88.5625 316.125 C89.43003906 315.4635498 90.29757812 314.80209961 91.19140625 314.12060547 C96.27699201 310.24461216 101.37785027 306.39005027 106.5 302.5625 C105.51 299.0975 105.51 299.0975 104.5 295.5625 C93.78262171 293.86208656 83.06446937 292.16664808 72.34530449 290.47753143 C67.36783404 289.69302638 62.39064495 288.9068194 57.4140625 288.11669922 C52.61012863 287.35405459 47.8055039 286.59591168 43.00037003 285.84086609 C41.1685372 285.55221804 39.33695776 285.26195716 37.50564194 284.970047 C34.93784731 284.56102692 32.36920635 284.1577843 29.80029297 283.75585938 C29.04575333 283.63429977 28.29121368 283.51274017 27.5138092 283.38749695 C19.7359322 281.76930308 19.7359322 281.76930308 13.0625 284.75 Z M-5.5 287.5625 C-6.98886719 288.77873047 -6.98886719 288.77873047 -8.5078125 290.01953125 C-15.10843778 295.40203295 -21.7190792 300.76494356 -28.4375 306 C-34.5267537 310.74937172 -40.49014533 315.64281357 -46.44262695 320.56201172 C-50.32217527 323.76803662 -54.20540665 326.96788073 -58.125 330.125 C-58.8778125 330.73601562 -59.630625 331.34703125 -60.40625 331.9765625 C-62.5 333.5625 -62.5 333.5625 -64.65625 334.8359375 C-66.89295449 336.0730545 -66.89295449 336.0730545 -69.5 338.5625 C-70.07379303 341.66835217 -69.85307458 344.44648919 -69.5 347.5625 C-61.69359123 348.64745851 -53.91928554 348.81526848 -46.05151367 348.85766602 C-44.55337133 348.86926433 -43.05527274 348.88983795 -41.55737305 348.91918945 C-39.36739694 348.96193351 -37.17862285 348.97803112 -34.98828125 348.98828125 C-33.04755737 349.01015503 -33.04755737 349.01015503 -31.06762695 349.0324707 C-26.87192291 348.47976214 -24.89694896 347.01456822 -21.5 344.5625 C-20.46149902 344.3886377 -19.42299805 344.21477539 -18.35302734 344.03564453 C-14.80753245 342.2049483 -14.73134823 341.27194433 -13.53369141 337.56201172 C-12.94680632 335.37893944 -12.3878826 333.18822926 -11.8515625 330.9921875 C-11.54930756 329.84082306 -11.24705261 328.68945862 -10.93563843 327.50320435 C-9.9747072 323.82037855 -9.0495844 320.12960013 -8.125 316.4375 C-7.48020029 313.94080186 -6.83309318 311.44469841 -6.18359375 308.94921875 C-4.59554651 302.82696413 -3.03681029 296.69780421 -1.5 290.5625 C-2.82 289.5725 -4.14 288.5825 -5.5 287.5625 Z M2.5 290.5625 C0.13085769 296.59312388 -1.72988454 302.64585314 -3.41796875 308.8984375 C-3.68007645 309.85900055 -3.94218414 310.8195636 -4.2122345 311.80923462 C-4.76107744 313.82398545 -5.30806284 315.83924313 -5.85327148 317.85498047 C-6.69094655 320.95023518 -7.53546875 324.04356348 -8.38085938 327.13671875 C-8.91446627 329.09884857 -9.44768341 331.06108444 -9.98046875 333.0234375 C-10.23354294 333.95046478 -10.48661713 334.87749207 -10.74736023 335.83261108 C-11.09320915 337.11502182 -11.09320915 337.11502182 -11.44604492 338.42333984 C-11.65017502 339.17642426 -11.85430511 339.92950867 -12.06462097 340.70541382 C-12.57608439 342.56912742 -12.57608439 342.56912742 -12.5 344.5625 C-10.84997172 345.91636936 -9.1825613 347.24928142 -7.5 348.5625 C-7.17 349.2225 -6.84 349.8825 -6.5 350.5625 C-3.82022838 350.95639829 -1.22372585 351.22346094 1.47265625 351.4140625 C2.27029892 351.47782074 3.06794159 351.54157898 3.88975525 351.60726929 C6.44673137 351.80959055 9.0044952 351.99867492 11.5625 352.1875 C13.29238546 352.32204844 15.02220449 352.45745387 16.75195312 352.59375 C21.00059406 352.92662913 25.24998742 353.24763751 29.5 353.5625 C29.60957031 352.97082031 29.71914063 352.37914062 29.83203125 351.76953125 C29.99058594 350.97933594 30.14914062 350.18914062 30.3125 349.375 C30.46332031 348.59769531 30.61414063 347.82039063 30.76953125 347.01953125 C31.5 344.5625 31.5 344.5625 33.26855469 342.19458008 C34.89421999 339.50519917 34.89421999 339.50519917 33.42285156 336.3112793 C32.76808411 335.07417442 32.08880902 333.84985022 31.390625 332.63671875 C30.85408295 331.64543472 30.85408295 331.64543472 30.30670166 330.63412476 C29.14173527 328.49402231 27.9466945 326.37249622 26.75 324.25 C25.95061684 322.79651136 25.1530883 321.34200118 24.35742188 319.88647461 C22.43372611 316.37912058 20.4862272 312.88579512 18.52807617 309.39758301 C17.13712185 306.91477414 15.76366306 304.42243904 14.390625 301.9296875 C11.41842572 295.89769808 11.41842572 295.89769808 7.5 290.5625 C5.83382885 290.52186168 4.16611905 290.519779 2.5 290.5625 Z M-71.5 351.5625 C-72.16 352.8825 -72.82 354.2025 -73.5 355.5625 C-72.83057373 356.00529297 -72.16114746 356.44808594 -71.47143555 356.90429688 C-68.37509293 358.9544805 -65.28129206 361.00846972 -62.1875 363.0625 C-61.13498047 363.75859375 -60.08246094 364.4546875 -58.99804688 365.171875 C-50.92165927 370.53956646 -42.81875073 375.94448658 -35.3359375 382.12890625 C-30.6605096 386.09972776 -30.6605096 386.09972776 -24.94921875 387.8046875 C-22.59432825 387.55394989 -22.59432825 387.55394989 -20.47265625 386.96484375 C-18.5 386.5625 -18.5 386.5625 -16.63330078 387.17602539 C-13.76274109 387.69606384 -12.81551083 386.91592327 -10.39453125 385.34375 C-9.58717529 384.83030029 -8.77981934 384.31685059 -7.94799805 383.7878418 C-7.07828369 383.218479 -6.20856934 382.64911621 -5.3125 382.0625 C-3.44133993 380.86915386 -1.56888399 379.67783784 0.3046875 378.48828125 C1.29952148 377.8535791 2.29435547 377.21887695 3.31933594 376.56494141 C8.92791248 373.03396621 14.62191157 369.64663503 20.3125 366.25 C21.97671997 365.25419922 21.97671997 365.25419922 23.67456055 364.23828125 C26.28219568 362.67826667 28.89065997 361.1196606 31.5 359.5625 C31.005 358.0775 31.005 358.0775 30.5 356.5625 C12.68 355.0775 12.68 355.0775 -5.5 353.5625 C-6.16 356.2025 -6.82 358.8425 -7.5 361.5625 C-9.85771338 364.04765735 -11.71153246 365.25126281 -14.875 366.5 C-19.2601589 366.60440855 -22.7013334 364.74093674 -26.3125 362.375 C-28.2587143 359.40446238 -28.68119758 356.00008821 -29.5 352.5625 C-43.51303843 351.64682888 -57.45906245 351.43938373 -71.5 351.5625 Z M-79.5 358.5625 C-78.83376136 364.73801969 -77.23690322 370.45855754 -75.375 376.375 C-75.10429687 377.32826172 -74.83359375 378.28152344 -74.5546875 379.26367188 C-73.71963916 381.89370135 -72.92136247 384.19595156 -71.5 386.5625 C-68.00402695 388.24472052 -68.00402695 388.24472052 -64.5 388.5625 C-61.94604681 390.52053078 -61.54442707 391.42921878 -60.5 394.5625 C-51.14087671 395.55513429 -41.89605802 395.66981538 -32.5 395.5625 C-31.51 393.2525 -30.52 390.9425 -29.5 388.5625 C-30.13421875 388.14742188 -30.7684375 387.73234375 -31.421875 387.3046875 C-38.16966964 382.84965182 -44.81817942 378.26817175 -51.4375 373.625 C-52.72756958 372.72152832 -52.72756958 372.72152832 -54.04370117 371.79980469 C-57.89565998 369.10003506 -61.74215995 366.39359149 -65.5703125 363.66015625 C-66.46762085 363.02484985 -66.46762085 363.02484985 -67.38305664 362.37670898 C-68.94754151 361.26890177 -70.50717282 360.15424896 -72.06640625 359.0390625 C-74.98091782 357.27070716 -76.42191403 357.02345702 -79.5 358.5625 Z M33.5 361.5625 C22.80233141 367.95920042 12.11717176 374.37377802 1.50244141 380.9074707 C-2.78794197 383.54210177 -7.11586243 386.08675173 -11.5 388.5625 C-10.6395861 392.89479715 -10.6395861 392.89479715 -8.5 396.5625 C-3.26372673 396.85418353 1.97512881 396.87650875 7.21875 396.91259766 C8.98613646 396.9291669 10.75345565 396.95646997 12.52050781 396.99462891 C15.06350593 397.04929148 17.6049317 397.07125333 20.1484375 397.0859375 C21.33450089 397.11994156 21.33450089 397.11994156 22.54452515 397.15463257 C25.03869257 397.20125565 25.03869257 397.20125565 28.5 396.5625 C30.4146856 394.23810613 30.4146856 394.23810613 31.5 391.5625 C34.41765 389.6174 36.12537285 389.10973683 39.5 388.5625 C39.67432891 384.81308747 39.78085841 381.06471491 39.875 377.3125 C39.92527344 376.24902344 39.97554687 375.18554688 40.02734375 374.08984375 C40.36154793 368.63886517 40.36154793 368.63886517 38.13769531 363.93554688 C36.33423177 362.65929782 36.33423177 362.65929782 33.5 361.5625 Z " fill="#85C651" transform="translate(262.5,-0.5625)"/>
<path d="M0 0 C22.95521209 3.49318445 45.84744203 3.14537545 68.76757812 -0.42089844 C79.90151116 -2.11993494 79.90151116 -2.11993494 85.3125 -1.4375 C87.81410818 0.43870613 88.93195652 1.80141303 90.3125 4.5625 C90.79497424 8.82435581 90.92027052 10.79828484 88.203125 14.21484375 C84.84636833 16.9410745 82.94742974 17.37015967 78.6875 17.8125 C77.56085938 17.94140625 76.43421875 18.0703125 75.2734375 18.203125 C73.96632813 18.32171875 72.65921875 18.4403125 71.3125 18.5625 C70.52878525 18.64432022 69.7450705 18.72614044 68.93760681 18.81044006 C62.08298031 19.49876293 55.30436616 19.72305396 48.41796875 19.73046875 C47.30931961 19.73379715 46.20067047 19.73712555 45.0584259 19.74055481 C42.72132782 19.74558872 40.38422264 19.74796424 38.04711914 19.74780273 C34.5475615 19.74997054 31.04832942 19.76811314 27.54882812 19.78710938 C16.63595606 19.8149919 5.80157597 19.63137256 -5.07421875 18.67578125 C-5.97678909 18.59804977 -6.87935944 18.5203183 -7.8092804 18.44023132 C-13.38699535 17.88645449 -17.83895785 17.36108155 -22 13.3125 C-24.03023858 10.00396305 -24.24458476 8.3825098 -23.6875 4.5625 C-19.06837754 -4.88570504 -8.81523513 -1.45569592 0 0 Z " fill="#FF741E" transform="translate(221.6875,429.4375)"/>
<path d="M0 0 C0.65881165 0.04735794 1.31762329 0.09471588 1.99639893 0.14350891 C3.40247017 0.24515672 4.80820574 0.35154029 6.21359253 0.46224976 C9.86060926 0.74746877 13.51032855 0.99211271 17.16015625 1.23828125 C17.87123032 1.28686783 18.58230438 1.33545441 19.31492615 1.38551331 C30.57960389 2.13842596 41.69084322 1.83164198 52.94775391 1.125 C57.80364772 0.82568738 62.65542701 0.56018433 67.51953125 0.4453125 C68.71191406 0.40792969 69.90429688 0.37054688 71.1328125 0.33203125 C74.84411294 0.84604872 75.93543492 1.84952171 78.20703125 4.7578125 C79.63365344 7.61105687 79.51736993 9.59235799 79.20703125 12.7578125 C76.55274258 17.24968563 74.14373657 18.43421264 69.20703125 19.7578125 C66.0539093 20.00505066 66.0539093 20.00505066 62.6418457 20.00073242 C60.71372795 20.00534737 60.71372795 20.00534737 58.74665833 20.01005554 C57.35454124 20.00315301 55.96242593 19.99588568 54.5703125 19.98828125 C53.12550396 19.98708696 51.68069463 19.98663681 50.23588562 19.9868927 C47.21067423 19.98533191 44.18558183 19.97707824 41.16040039 19.96362305 C37.31209997 19.94671033 33.46393096 19.94280695 29.61559772 19.94356823 C26.63074016 19.94329406 23.64591044 19.93777244 20.66106224 19.93056679 C19.2439107 19.92741721 17.82675605 19.92542155 16.40960121 19.92467308 C-5.50771858 19.90043759 -5.50771858 19.90043759 -10.91796875 17.1953125 C-13.49721954 13.84228647 -14.08515147 10.95689553 -13.79296875 6.7578125 C-12.60347559 3.87798695 -11.67544286 2.35769587 -9.10424805 0.60986328 C-5.91634648 -0.56535342 -3.38170856 -0.26312423 0 0 Z " fill="#FF741E" transform="translate(220.79296875,454.2421875)"/>
<path d="M0 0 C2.44294199 2.94590064 3.04276854 3.96338509 3.5625 7.75 C3.05195424 12.19904165 1.93316819 13.99894494 -1.09375 17.17578125 C-3.95635798 19.40434667 -6.31034812 19.62731185 -9.875 19.5625 C-13.14793835 18.80135155 -14.67892405 17.73737855 -17.1875 15.5 C-19.51282621 11.45220993 -19.81337744 8.12606206 -18.875 3.5625 C-17.24156476 0.45703617 -15.1921166 -1.7789417 -12 -3.375 C-7.01127993 -3.52172706 -3.89635587 -3.30343215 0 0 Z " fill="#DCDF12" transform="translate(63.875,170.4375)"/>
<path d="M0 0 C11.22 0 22.44 0 34 0 C31.74728682 7.88449612 31.74728682 7.88449612 28.5 10.375 C27.58734375 11.09816406 27.58734375 11.09816406 26.65625 11.8359375 C21.53313447 15.43661776 15.00635182 14.47148837 9 14 C5.32197504 12.50385425 3.78909109 11.54162197 1.98828125 8.0234375 C0.9005675 5.31645758 0 2.93297969 0 0 Z " fill="#FF741E" transform="translate(238,479)"/>
<path d="M0 0 C2.96042112 2.58249502 4.59480753 4.1801882 5.4453125 8 C5.65509607 11.69219084 5.10795755 13.83086651 3.125 16.9375 C0.22627065 19.75097261 -0.62217779 19.96221778 -4.75 20.375 C-7.93509363 20.32278535 -9.86463972 19.8375542 -12.4375 17.9375 C-15.5115335 14.41360794 -16.08158318 12.65024138 -16 8 C-14.7187601 4.08091325 -13.62547612 2.44067635 -10.25 0.0625 C-6.21684156 -1.25603257 -4.05891233 -1.2545729 0 0 Z " fill="#ECE606" transform="translate(158,10)"/>
<path d="M0 0 C3.16872216 0.68885264 4.96142228 2.13674555 7.15625 4.46875 C8.75711627 7.67048254 8.65542089 10.99452059 8.15625 14.46875 C6.36261089 17.2787846 5.13744065 18.97815468 2.15625 20.46875 C-2.5477651 21.1156676 -5.83476607 21.10708677 -9.90625 18.53125 C-12.52858387 14.38627065 -12.85757523 11.24462091 -11.84375 6.46875 C-9.48363178 0.93545848 -5.67718393 -0.37847893 0 0 Z " fill="#4BBE7C" transform="translate(446.84375,152.53125)"/>
<path d="M0 0 C3.38121991 2.44598887 4.76936783 3.89296559 5.625 8 C4.77618008 12.0743356 3.32274404 13.54405875 0 16 C-3.78454468 16.70960213 -5.46714413 16.27801176 -8.875 14.5 C-11.46043632 11.45831021 -11.69010681 9.79992767 -11.4140625 5.90625 C-11 4 -11 4 -9.4375 1.5 C-6.00863886 -0.61006839 -3.95779649 -0.62491523 0 0 Z " fill="#EFE704" transform="translate(90,71)"/>
<path d="M0 0 C2 2.25 2 2.25 3 5 C2.18795587 8.17435434 1.31819425 9.68180575 -1 12 C-7.46153846 11.53846154 -7.46153846 11.53846154 -10 9 C-10.375 5.5625 -10.375 5.5625 -10 2 C-7.03688004 -1.64691687 -4.27404321 -1.45499343 0 0 Z " fill="#B2CC2F" transform="translate(341,31)"/>
<path d="M0 0 C2.5 0.875 2.5 0.875 3.8125 3.4375 C4.1528125 4.6440625 4.1528125 4.6440625 4.5 5.875 C2.75 7.9375 2.75 7.9375 0.5 9.875 C-2.51811422 9.69746387 -3.33735215 9.03764785 -5.5 6.875 C-5.25 3.8125 -5.25 3.8125 -4.5 0.875 C-2.5 -0.125 -2.5 -0.125 0 0 Z " fill="#1CBA9F" transform="translate(435.5,268.125)"/>
<path d="M0 0 C2.5 0.25 2.5 0.25 4.5 2.25 C4.75 4.75 4.75 4.75 4.5 7.25 C2.5 9.25 2.5 9.25 0 9.5 C-2.5 9.25 -2.5 9.25 -4.5 7.25 C-4.75 4.75 -4.75 4.75 -4.5 2.25 C-2.5 0.25 -2.5 0.25 0 0 Z " fill="#1ABAA0" transform="translate(344.5,364.75)"/>
</svg>
